<?xml version="1.0" encoding="utf-8"?>
<svg viewBox="448.0999755859375 446.89996337890625 511.20025634765625 501.10003662109375" width="511.20025634765625" height="501.10003662109375" xmlns="http://www.w3.org/2000/svg" xmlns:xlink="http://www.w3.org/1999/xlink"><g transform="matrix(1, 0, 0, 1, 0, 0)">
			<g>
				<g>
					<path class="st0" d="M703.7,446.9c-121.6,0-224.1,81.7-255.6,193.2l255.6,260.5l255.6-260.5&#10;&#9;&#9;&#9;&#9;&#9;&#9;C927.7,528.6,825.2,446.9,703.7,446.9z" style="fill: rgb(12, 128, 64);"/>
				</g>
				<g>
					<g>
						<path class="st7" d="M450.4,632.3v10.1l31.3,31.9V566.5C468.5,586.7,457.9,608.8,450.4,632.3z" style="fill: rgb(92, 179, 71);"/>
					</g>
					<g>
						<path class="st7" d="M529.6,511.9v211.3l31.3,31.9V488.5C549.9,495.5,539.5,503.3,529.6,511.9z" style="fill: rgb(92, 179, 71);"/>
					</g>
					<g>
						<path class="st7" d="M608.8,464.4v339.5l31.3,31.9V454.6C629.4,457.2,619,460.5,608.8,464.4z" style="fill: rgb(92, 179, 71);"/>
					</g>
					<g>
						<path class="st7" d="M703.7,446.9c-5.3,0-10.5,0.2-15.7,0.5v437.2l15.7,16l15.7-16V447.4C714.2,447.1,708.9,446.9,703.7,446.9&#10;&#9;&#9;&#9;&#9;&#9;&#9;&#9;z" style="fill: rgb(92, 179, 71);"/>
					</g>
					<g>
						<path class="st7" d="M767.2,454.6v381.3l31.3-31.9V464.4C788.4,460.5,777.9,457.2,767.2,454.6z" style="fill: rgb(92, 179, 71);"/>
					</g>
					<g>
						<path class="st7" d="M846.4,488.5v266.6l31.3-31.9V511.9C867.9,503.3,857.4,495.5,846.4,488.5z" style="fill: rgb(92, 179, 71);"/>
					</g>
					<g>
						<path class="st7" d="M956.9,632.3c-7.4-23.5-18-45.6-31.3-65.8v107.9l31.3-31.9V632.3z" style="fill: rgb(92, 179, 71);"/>
					</g>
				</g>
			</g>
			<g>
				<path class="st8" d="M703.7,577.8c-72.8,0-134.1,48.9-153,115.6l153,155.9l153-155.9C837.8,626.7,776.4,577.8,703.7,577.8z" style="fill: rgb(163, 113, 42);"/>
			</g>
			<g>
				<path d="M 731.700012 837.400024 A 28 28 0 0 1 703.700012 865.400024 A 28 28 0 0 1 675.700012 837.400024 A 28 28 0 0 1 703.700012 809.400024 A 28 28 0 0 1 731.700012 837.400024 Z" class="st8" style="fill: rgb(163, 113, 42);"/>
			</g>
			<g>
				<path d="M 712.9000244140625 840.9000244140625 L 703.7000122070312 848 L 694.5 840.9000244140625 L 694.5 829.7000122070312 L 712.9000244140625 829.7000122070312 Z" class="st1" style="fill: rgb(255, 255, 255);"/>
			</g>
			<g>
				<g>
					<path class="st1" d="M781.8,720.4c0-6.3,2.5-12,6.7-16.1l-68.7-68.7c-4.1,4.1-9.8,6.7-16.1,6.7c-6.3,0-12-2.5-16.1-6.7&#10;&#9;&#9;&#9;&#9;&#9;&#9;l-68.7,68.7c4.1,4.1,6.7,9.8,6.7,16.1c0,6.3-2.5,12-6.7,16.1l67.5,67.5c4.2-4.9,10.4-8,17.3-8c6.9,0,13.1,3.1,17.3,8l67.5-67.5&#10;&#9;&#9;&#9;&#9;&#9;&#9;C784.4,732.4,781.8,726.7,781.8,720.4z" style="fill: rgb(255, 255, 255);"/>
				</g>
			</g>
			<g>
				<path class="st7" d="M788.5,704.3l-8-8l-25.4-25.4l-35.3-35.3c-1,1-2.2,2-3.4,2.8c-3.6,2.4-8,3.9-12.7,3.9&#10;&#9;&#9;&#9;&#9;&#9;c-4.7,0-9.1-1.4-12.7-3.9c-1.2-0.8-2.4-1.8-3.4-2.8l-35.3,35.3l-25.4,25.4l-8,8c4.1,4.1,6.7,9.8,6.7,16.1c0,6.3-2.5,12-6.7,16.1&#10;&#9;&#9;&#9;&#9;&#9;l8,8l25.4,25.4l34.1,34.1c1.3-1.6,2.9-2.9,4.6-4.1c3.6-2.5,8-3.9,12.7-3.9c4.7,0,9.1,1.5,12.7,3.9c1.7,1.2,3.3,2.5,4.6,4.1&#10;&#9;&#9;&#9;&#9;&#9;l34.1-34.1l25.4-25.4l8-8c-4.1-4.1-6.7-9.8-6.7-16.1C781.8,714.1,784.4,708.5,788.5,704.3z" style="fill: rgb(92, 179, 71);"/>
			</g>
			<g>
				<defs>
					<path id="SVGID_1_" d="M788.5,704.3l-8-8l-25.4-25.4l-35.3-35.3c-1,1-2.2,2-3.4,2.8c-3.6,2.4-8,3.9-12.7,3.9&#10;&#9;&#9;&#9;&#9;&#9;&#9;c-4.7,0-9.1-1.4-12.7-3.9c-1.2-0.8-2.4-1.8-3.4-2.8l-35.3,35.3l-25.4,25.4l-8,8c4.1,4.1,6.7,9.8,6.7,16.1&#10;&#9;&#9;&#9;&#9;&#9;&#9;c0,6.3-2.5,12-6.7,16.1l8,8l25.4,25.4l34.1,34.1c1.3-1.6,2.9-2.9,4.6-4.1c3.6-2.5,8-3.9,12.7-3.9c4.7,0,9.1,1.5,12.7,3.9&#10;&#9;&#9;&#9;&#9;&#9;&#9;c1.7,1.2,3.3,2.5,4.6,4.1l34.1-34.1l25.4-25.4l8-8c-4.1-4.1-6.7-9.8-6.7-16.1C781.8,714.1,784.4,708.5,788.5,704.3z"/>
				</defs>
				<clipPath id="SVGID_2_">
					<use style="overflow:visible;" xlink:href="#SVGID_1_"/>
				</clipPath>
				<g class="st9" style="clip-path: url('#SVGID_2_');">
					<g>
						<path class="st0" d="M703.7,494.3c-121.6,0-224.1,81.7-255.6,193.2l255.6,260.5l255.6-260.5&#10;&#9;&#9;&#9;&#9;&#9;&#9;&#9;C927.7,576,825.2,494.3,703.7,494.3z" style="fill: rgb(12, 128, 64);"/>
					</g>
					<g>
						<g>
							<path class="st7" d="M450.4,679.7v10.1l31.3,31.9V613.9C468.5,634.1,457.9,656.2,450.4,679.7z" style="fill: rgb(92, 179, 71);"/>
						</g>
						<g>
							<path class="st7" d="M529.6,559.3v211.3l31.3,31.9V535.9C549.9,542.9,539.5,550.7,529.6,559.3z" style="fill: rgb(92, 179, 71);"/>
						</g>
						<g>
							<path class="st7" d="M608.8,511.7v339.5l31.3,31.9V501.9C629.4,504.6,619,507.9,608.8,511.7z" style="fill: rgb(92, 179, 71);"/>
						</g>
						<g>
							<path class="st7" d="M703.7,494.3c-5.3,0-10.5,0.2-15.7,0.5V932l15.7,16l15.7-16V494.7C714.2,494.4,708.9,494.3,703.7,494.3z&#10;&#9;&#9;&#9;&#9;&#9;&#9;&#9;&#9;" style="fill: rgb(92, 179, 71);"/>
						</g>
						<g>
							<path class="st7" d="M767.2,501.9v381.3l31.3-31.9V511.7C788.4,507.9,777.9,504.6,767.2,501.9z" style="fill: rgb(92, 179, 71);"/>
						</g>
						<g>
							<path class="st7" d="M846.4,535.9v266.6l31.3-31.9V559.3C867.9,550.7,857.4,542.9,846.4,535.9z" style="fill: rgb(92, 179, 71);"/>
						</g>
						<g>
							<path class="st7" d="M956.9,679.7c-7.4-23.5-18-45.6-31.3-65.8v107.9l31.3-31.9V679.7z" style="fill: rgb(92, 179, 71);"/>
						</g>
					</g>
				</g>
			</g>
			<g>
				
					<path d="M 695.200012 613.700012 H 712.100012 V 630.600012 H 695.200012 V 613.700012 Z" transform="matrix(0.7071 0.7071 -0.7071 0.7071 646.0422 -315.3443)" class="st1" style="fill: rgb(255, 255, 255);"/>
			</g>
			<g>
				
					<path d="M 795.700012 711.400024 H 812.600012 V 728.300024 H 795.700012 V 711.400024 Z" transform="matrix(0.7071 0.7071 -0.7071 0.7071 744.5443 -357.7975)" class="st1" style="fill: rgb(255, 255, 255);"/>
			</g>
			<g>
				
					<path d="M 598.5 711.400024 H 615.4 V 728.300024 H 598.5 V 711.400024 Z" transform="matrix(0.7071 0.7071 -0.7071 0.7071 686.7662 -218.3088)" class="st1" style="fill: rgb(255, 255, 255);"/>
			</g>
			<g>
				<g>
					<path d="M 724.500011 721.099976 A 20.799999 20.799999 0 0 1 703.700012 741.899975 A 20.799999 20.799999 0 0 1 682.900013 721.099976 A 20.799999 20.799999 0 0 1 703.700012 700.299976 A 20.799999 20.799999 0 0 1 724.500011 721.099976 Z" class="st8" style="fill: rgb(163, 113, 42);"/>
				</g>
				<g>
					<path d="M 697.799988 719.200012 H 709.999988 V 723.600012 H 697.799988 V 719.200012 Z" class="st1" style="fill: rgb(255, 255, 255);"/>
				</g>
			</g>
			<g>
				<path class="st1" d="M678.8,826.1c-0.5,0-1.1-0.2-1.5-0.6L457,600.9c-0.8-0.8-0.8-2.1,0-2.9c0.8-0.8,2.1-0.8,2.9,0l220.3,224.6&#10;&#9;&#9;&#9;&#9;&#9;c0.8,0.8,0.8,2.1,0,2.9C679.8,825.9,679.3,826.1,678.8,826.1z" style="fill: rgb(255, 255, 255);"/>
			</g>
			<g>
				<path class="st1" d="M728.9,826.1c-0.5,0-1-0.2-1.4-0.6c-0.8-0.8-0.8-2.1,0-2.9L947.8,598c0.8-0.8,2.1-0.8,2.9,0&#10;&#9;&#9;&#9;&#9;&#9;c0.8,0.8,0.8,2.1,0,2.9L730.4,825.5C730,825.9,729.5,826.1,728.9,826.1z" style="fill: rgb(255, 255, 255);"/>
			</g>
		</g></svg>