<svg width="32" height="32" viewBox="0 0 32 32" fill="none" xmlns="http://www.w3.org/2000/svg">
  <!-- Baseball circle -->
  <circle cx="16" cy="16" r="15" fill="white" stroke="#333" stroke-width="1"/>

  <!-- Baseball stitching - left curve -->
  <path d="M 8 12 Q 10 10, 12 10" stroke="#CC0000" stroke-width="1.5" fill="none" stroke-linecap="round"/>
  <path d="M 9 14 Q 11 12, 13 12" stroke="#CC0000" stroke-width="1.5" fill="none" stroke-linecap="round"/>
  <path d="M 10 16 Q 12 14, 14 14" stroke="#CC0000" stroke-width="1.5" fill="none" stroke-linecap="round"/>
  <path d="M 11 18 Q 13 16, 15 16" stroke="#CC0000" stroke-width="1.5" fill="none" stroke-linecap="round"/>
  <path d="M 12 20 Q 14 18, 16 18" stroke="#CC0000" stroke-width="1.5" fill="none" stroke-linecap="round"/>

  <!-- Baseball stitching - right curve -->
  <path d="M 20 10 Q 22 10, 24 12" stroke="#CC0000" stroke-width="1.5" fill="none" stroke-linecap="round"/>
  <path d="M 19 12 Q 21 12, 23 14" stroke="#CC0000" stroke-width="1.5" fill="none" stroke-linecap="round"/>
  <path d="M 18 14 Q 20 14, 22 16" stroke="#CC0000" stroke-width="1.5" fill="none" stroke-linecap="round"/>
  <path d="M 17 16 Q 19 16, 21 18" stroke="#CC0000" stroke-width="1.5" fill="none" stroke-linecap="round"/>
  <path d="M 16 18 Q 18 18, 20 20" stroke="#CC0000" stroke-width="1.5" fill="none" stroke-linecap="round"/>
</svg>
